<?xml version="1.0" encoding="UTF-8" standalone="no"?>
<!-- Created with Inkscape (http://www.inkscape.org/) -->

<svg
   width="64"
   height="64"
   viewBox="0 0 16.933333 16.933333"
   version="1.1"
   id="svg1"
   inkscape:version="1.2.2 (b0a8486541, 2022-12-01)"
   sodipodi:docname="pardus-update.svg"
   xmlns:inkscape="http://www.inkscape.org/namespaces/inkscape"
   xmlns:sodipodi="http://sodipodi.sourceforge.net/DTD/sodipodi-0.dtd"
   xmlns="http://www.w3.org/2000/svg"
   xmlns:svg="http://www.w3.org/2000/svg">
  <sodipodi:namedview
     id="namedview1"
     pagecolor="#ffffff"
     bordercolor="#000000"
     borderopacity="0.25"
     inkscape:showpageshadow="2"
     inkscape:pageopacity="0.0"
     inkscape:pagecheckerboard="0"
     inkscape:deskcolor="#d1d1d1"
     inkscape:document-units="px"
     inkscape:zoom="2.3307343"
     inkscape:cx="-83.66462"
     inkscape:cy="5.148592"
     inkscape:window-width="1920"
     inkscape:window-height="1005"
     inkscape:window-x="0"
     inkscape:window-y="0"
     inkscape:window-maximized="1"
     inkscape:current-layer="g1"
     showgrid="false" />
  <defs
     id="defs1">
    <linearGradient
       id="SVGID_00000129901450951144020920000007753056098303935627_"
       gradientUnits="userSpaceOnUse"
       x1="-434.02811"
       y1="-74.135002"
       x2="-434.02811"
       y2="-49.8008"
       gradientTransform="matrix(1,0,0,-1,0,-121.5918)">
      <stop
         offset="0"
         style="stop-color:#27AFD9"
         id="stop80" />
      <stop
         offset="1"
         style="stop-color:#42BDD9"
         id="stop81" />
    </linearGradient>
  </defs>
  <g
     inkscape:label="Layer 1"
     inkscape:groupmode="layer"
     id="layer1">
    <g
       id="g2"
       transform="matrix(1.3559798,0,0,1.3559798,-3.0139622,-3.0139622)">
      <g
         id="g1">
        <path
           class="st0"
           d="M 12.594167,2.4077082 H 4.3656252 c -0.9789583,0.079375 -1.74625,0.873125 -1.825625,1.825625 v 8.4137498 c 0.079375,1.031875 0.873125,1.799167 1.8785417,1.878542 h 0.052917 l 8.0697911,-0.02646 c 1.031875,-0.05292 1.852083,-0.899583 1.852083,-1.931458 V 4.2862498 c 0,-1.0054166 -0.767291,-1.825625 -1.799166,-1.8785416 z"
           id="path2"
           style="opacity:0.3;fill:#ffffff;stroke-width:0.264583;enable-background:new" />
        <path
           class="st1"
           d="m 4.4714585,14.393333 h -0.052917 c -0.9260417,-0.05292 -1.666875,-0.79375 -1.74625,-1.74625 v -0.05292 -8.3079162 -0.052917 c 0.052917,-0.8995834 0.79375,-1.6139584 1.6933333,-1.6933334 h 0.052917 8.1756252 c 0.926041,0.052917 1.666875,0.8202084 1.666875,1.74625 v 8.2814586 c 0,0.9525 -0.740834,1.74625 -1.719792,1.799167 h -0.02646 z"
           id="path3"
           style="fill:#ffffff;stroke-width:0.264583;enable-background:new" />
        <path
           class="st12"
           d="m 4.4714585,14.393333 h -0.052917 c -0.9260417,-0.05292 -1.666875,-0.79375 -1.74625,-1.74625 v -0.05292 -8.3079162 -0.052917 c 0.052917,-0.8995834 0.79375,-1.6139584 1.6933333,-1.6933334 h 0.052917 8.1756252 c 0.926041,0.052917 1.666875,0.8202084 1.666875,1.74625 v 8.2814586 c 0,0.9525 -0.740834,1.74625 -1.719792,1.799167 h -0.02646 z"
           id="path74"
           style="opacity:0.3;fill:#bbd8e8;stroke-width:0.264583;enable-background:new" />
        <g
           id="g75"
           transform="matrix(0.26458333,0,0,0.26458333,-38.179374,24.817916)">
          <path
             class="st2"
             d="M 161.2,-39.4 H 161 c -3.5,-0.2 -6.3,-3 -6.6,-6.6 v -0.2 -31.4 -0.2 c 0.2,-3.4 3,-6.1 6.4,-6.4 h 0.2 30.9 c 3.5,0.2 6.3,3.1 6.3,6.6 v 31.3 c 0,3.6 -2.8,6.6 -6.5,6.8 h -0.1 z m 0,-2.1 h 30.4 c 2.5,-0.2 4.5,-2.2 4.5,-4.7 v -31.3 c 0,-2.4 -1.9,-4.3 -4.3,-4.5 H 191.7 161 c -2.3,0.2 -4.2,2 -4.4,4.4 v 0.1 31.5 c 0.1,2.4 2.1,4.3 4.6,4.5 z"
             id="path75"
             style="fill:#2f3536" />
        </g>
        <path
           style="fill:#33b5d9;fill-opacity:1;stroke-width:0.543557"
           d="M 4.6617611,4.6617613 V 7.3795509 H 7.3795513 V 4.6617613 Z m 4.8920211,0 V 7.3795509 H 12.271572 V 4.6617613 Z M 5.2053208,5.205319 H 6.8359943 V 6.8359929 H 5.2053208 Z m 2.7177874,0 V 6.2924348 H 8.466668 V 6.8359929 H 9.0102249 V 6.2924348 5.7488771 H 8.466668 V 5.205319 Z M 8.466668,6.8359929 H 7.9231082 v 0.543558 0.5435578 H 8.466668 V 7.3795509 Z M 7.9231082,7.9231087 H 7.3795513 v 0.543558 h -0.543557 v 0.5435578 h 1.0871139 z m 0,1.0871158 V 9.5537822 H 8.466668 V 9.0102245 Z m 0.5435598,0 h 1.630673 V 7.9231087 H 9.5537822 v 0.543558 H 8.466668 Z m 1.630673,0 v 0.5435577 h 0.543557 V 10.09734 h 0.543558 V 9.0102245 Z m 0,0.5435577 H 9.5537822 V 10.09734 H 10.097341 Z M 9.5537822,10.09734 H 8.466668 v 0.543559 h 1.0871142 z m 0,0.543559 v 0.543558 h 0.5435588 v -0.543558 z m 0.5435588,0.543558 v 0.543557 h 0.543557 v -0.543557 z m 0.543557,0 h 1.087117 v -0.543558 h -1.087117 z m 1.087117,0 v 1.087115 h 0.543557 v -0.543558 -0.543557 z m -1.087117,0.543557 v 0.543558 h 0.543558 v -0.543558 z m -0.543557,0 H 8.466668 7.9231082 v 0.543558 H 10.097341 Z M 8.466668,10.640899 H 7.9231082 v 0.543558 H 8.466668 Z M 6.8359943,8.4666667 V 7.9231087 H 5.7488778 v 0.543558 z m -1.0871165,0 H 5.2053208 V 7.9231087 H 4.6617611 V 9.0102245 H 5.7488778 Z M 10.097341,5.205319 h 1.630674 V 6.8359929 H 10.097341 Z M 5.7488778,5.7488771 V 6.2924348 H 6.2924346 V 5.7488771 Z m 4.8920202,0 v 0.5435577 h 0.543558 V 5.7488771 Z m 0,2.1742316 v 0.543558 h 1.087117 v 0.5435578 h 0.543557 V 8.4666667 7.9231087 H 11.728015 Z M 4.6617611,9.5537822 V 12.271572 H 6.8752729 7.3795513 V 9.5537822 Z m 7.0662539,0 V 10.09734 h 0.543557 V 9.5537822 Z M 5.2053208,10.09734 h 1.6306735 v 1.630674 H 5.2053208 Z m 0.543557,0.543559 v 0.543558 h 0.5435568 v -0.543558 z"
           id="path2172" />
      </g>
    </g>
  </g>
</svg>
